# File created by Blade
# Date/Time:  Thu Jan 22 18:06:37 2015
#---------------------------------------------------------
:version 1.10
:name HOM
:units
  mass 1.0
  length 1.000000
  angle deg
:documentation
     Acclaim Skeleton File
:root
   axis xyz
   order TX TY TZ RX RY RZ
   position 0.000000 0.000000 0.000000
   orientation 0 0 0
:bonedata
   begin
      id 1
      name RightUpLeg_dum
      direction -1.000000 0.000000 0.000000
      length 4.478084
      axis 0.0 0.0 0.0 xyz
   end
   begin
      id 2
      name LeftUpLeg_dum
      direction 1.000000 0.000000 0.000000
      length 4.478084
      axis 0.0 0.0 0.0 xyz
   end
   begin
      id 3
      name Spine_dum
      direction 0.000000 1.000000 0.000000
      length 6.068208
      axis 0.0 0.0 0.0 xyz
   end
   begin
      id 4
      name RightUpLeg
      direction 0.000000 -1.000000 0.000000
      length 16.405774
      axis 0.0 0.0 0.0 xyz
      dof rx ry rz
   end
   begin
      id 5
      name RightLeg
      direction 0.000000 -1.000000 0.000000
      length 14.644143
      axis 0.0 0.0 0.0 xyz
      dof rx ry rz
   end
   begin
      id 6
      name RightFoot
      direction 0.000000 -0.258819 0.965926
      length 5.806150
      axis 15.0 0.0 0.0 xyz
      dof rx ry rz
   end
   begin
      id 7
      name RightToeBase
      direction 0.000000 0.000000 1.000000
      length 2.952750
      axis 0.0 0.0 0.0 xyz
      dof rx ry rz
   end
   begin
      id 8
      name LeftUpLeg
      direction 0.000000 -1.000000 0.000000
      length 16.405774
      axis 0.0 0.0 0.0 xyz
      dof rx ry rz
   end
   begin
      id 9
      name LeftLeg
      direction 0.000000 -1.000000 0.000000
      length 14.644143
      axis 0.0 0.0 0.0 xyz
      dof rx ry rz
   end
   begin
      id 10
      name LeftFoot
      direction 0.000000 -0.258819 0.965926
      length 5.806150
      axis 15.0 0.0 0.0 xyz
      dof rx ry rz
   end
   begin
      id 11
      name LeftToeBase
      direction 0.000000 0.000000 1.000000
      length 2.952750
      axis 0.0 0.0 0.0 xyz
      dof rx ry rz
   end
   begin
      id 12
      name Spine
      direction 0.000000 1.000000 0.000000
      length 0.000000
      axis 0.0 0.0 0.0 xyz
      dof rx ry rz
   end
   begin
      id 13
      name Spine_dum1
      direction 0.000000 1.000000 0.000000
      length 10.013923
      axis 0.0 0.0 0.0 xyz
   end
   begin
      id 14
      name Spine_dum2
      direction 0.000000 1.000000 0.000000
      length 10.013923
      axis 0.0 0.0 0.0 xyz
   end
   begin
      id 15
      name Spine_dum3
      direction 0.000000 1.000000 0.000000
      length 15.777476
      axis 0.0 0.0 0.0 xyz
   end
   begin
      id 16
      name RightShoulder
      direction -1.000000 0.000000 0.000000
      length 7.190220
      axis 0.0 0.0 90.0 xyz
      dof rx ry rz
   end
   begin
      id 17
      name RightArm
      direction -1.000000 0.000000 0.000000
      length 10.177469
      axis 0.0 0.0 90.0 xyz
      dof rx ry rz
   end
   begin
      id 18
      name RightForeArm
      direction -1.000000 0.000000 0.000000
      length 8.392114
      axis 0.0 0.0 90.0 xyz
      dof ry rz rx
   end
   begin
      id 19
      name RightHand
      direction -1.000000 0.000000 0.000000
      length 0.000000
      axis 0.0 0.0 90.0 xyz
      dof rx ry rz
   end
   begin
      id 20
      name RightHand_dum1
      direction -1.000000 0.000000 0.000000
      length 3.937000
      axis 0.0 0.0 90.0 xyz
   end
   begin
      id 21
      name RightHand_dum2
      direction 0.000000 0.000000 0.000000
      length 0.000000
      axis 0.0 0.0 90.0 xyz
   end
   begin
      id 22
      name RightHandThumb1
      direction 0.000000 0.000000 1.000000
      length 3.937000
      axis 0.0 0.0 90.0 xyz
      dof rx rz ry
   end
   begin
      id 23
      name LeftShoulder
      direction 1.000000 0.000000 0.000000
      length 7.190220
      axis 0.0 0.0 -90.0 xyz
      dof rx ry rz
   end
   begin
      id 24
      name LeftArm
      direction 1.000000 0.000000 0.000000
      length 10.177469
      axis 0.0 0.0 -90.0 xyz
      dof rx ry rz
   end
   begin
      id 25
      name LeftForeArm
      direction 1.000000 0.000000 0.000000
      length 8.392114
      axis 0.0 0.0 -90.0 xyz
      dof ry rz rx
   end
   begin
      id 26
      name LeftHand
      direction 1.000000 0.000000 0.000000
      length 0.000000
      axis 0.0 0.0 -90.0 xyz
      dof rx ry rz
   end
   begin
      id 27
      name LeftHand_dum1
      direction 1.000000 0.000000 0.000000
      length 3.937000
      axis 0.0 0.0 -90.0 xyz
   end
   begin
      id 28
      name LeftHand_dum2
      direction 0.000000 0.000000 0.000000
      length 0.000000
      axis 0.0 0.0 -90.0 xyz
   end
   begin
      id 29
      name LeftHandThumb1
      direction 0.000000 0.000000 1.000000
      length 3.937000
      axis 0.0 0.0 -90.0 xyz
      dof rx rz ry
   end
   begin
      id 30
      name Head
      direction 0.000000 1.000000 0.000000
      length 4.527550
      axis 0.0 0.0 0.0 xyz
      dof rx ry rz
   end
:hierarchy
   begin
      root RightUpLeg_dum LeftUpLeg_dum Spine_dum
      RightUpLeg_dum RightUpLeg
      LeftUpLeg_dum LeftUpLeg
      Spine_dum Spine
      RightUpLeg RightLeg
      RightLeg RightFoot
      RightFoot RightToeBase
      LeftUpLeg LeftLeg
      LeftLeg LeftFoot
      LeftFoot LeftToeBase
      Spine Spine_dum1 Spine_dum2 Spine_dum3
      Spine_dum1 RightShoulder
      Spine_dum2 LeftShoulder
      Spine_dum3 Head
      RightShoulder RightArm
      RightArm RightForeArm
      RightForeArm RightHand
      RightHand RightHand_dum1 RightHand_dum2
      RightHand_dum2 RightHandThumb1
      LeftShoulder LeftArm
      LeftArm LeftForeArm
      LeftForeArm LeftHand
      LeftHand LeftHand_dum1 LeftHand_dum2
      LeftHand_dum2 LeftHandThumb1
   end

# File created by Blade
# Date/Time:  Thu Jan 22 18:06:27 2015
# Frame Rate: 120.000 fps
#------------------------------------------------------
:FULLY-SPECIFIED
:DEGREES
1
root -4.867539 33.072825 -1.139742 7.467191 -0.260785 3.259977
RightUpLeg 0.924719 -4.031811 1.182632
RightLeg -0.084606 -0.000000 0.000000
RightFoot -12.550083 -7.389439 -2.460049
RightToeBase 2.847532 -0.000000 -0.000000
LeftUpLeg -0.643577 -0.609842 -2.662455
LeftLeg 1.839448 -0.000000 -0.000000
LeftFoot -12.427206 4.527501 -11.467567
LeftToeBase 9.444223 -0.000000 -0.000000
Spine -10.426066 -5.062447 -2.242761
RightShoulder -18.556496 -10.211413 -26.701833
RightArm 17.982465 33.512949 44.089324
RightForeArm -6.717760 -0.000000 11.314269
RightHand 6.031999 -0.000000 6.209123
RightHandThumb1 -24.326973 -0.000000 -32.862282
LeftShoulder -21.977553 1.386968 29.733824
LeftArm 14.581716 -38.985183 -39.170058
LeftForeArm 3.803045 -0.000000 11.385169
LeftHand -2.856086 -0.000000 5.583060
LeftHandThumb1 -26.253704 0.000000 33.147579
Head 1.217404 2.001995 1.430860
2
root -4.868132 33.072679 -1.138729 7.456908 -0.258519 3.259309
RightUpLeg 0.944936 -4.039509 1.181975
RightLeg -0.101038 -0.000000 0.000000
RightFoot -12.544859 -7.371281 -2.463377
RightToeBase 2.907264 -0.000000 -0.000000
LeftUpLeg -0.629938 -0.609487 -2.660278
LeftLeg 1.836706 -0.000000 -0.000000
LeftFoot -12.428512 4.524528 -11.475041
LeftToeBase 9.453800 -0.000000 -0.000000
Spine -10.419568 -5.061047 -2.247939
RightShoulder -18.571769 -10.212981 -26.679552
RightArm 18.004927 33.530936 44.094275
RightForeArm -6.736714 -0.000000 11.304729
RightHand 6.054884 -0.000000 6.246929
RightHandThumb1 -24.326973 -0.000000 -32.862282
LeftShoulder -21.979519 1.352653 29.765869
LeftArm 14.543616 -38.960648 -39.152195
LeftForeArm 3.796103 -0.000000 11.377823
LeftHand -2.916687 -0.000000 5.629545
LeftHandThumb1 -26.253704 0.000000 33.147579
Head 1.218544 2.003396 1.443438
3
root -4.867682 33.072589 -1.139061 7.454483 -0.259410 3.264164
RightUpLeg 0.949489 -4.036858 1.176309
RightLeg -0.107900 -0.000000 0.000000
RightFoot -12.544914 -7.371564 -2.445952
RightToeBase 2.896071 -0.000000 -0.000000
LeftUpLeg -0.631161 -0.609663 -2.666296
LeftLeg 1.842609 -0.000000 -0.000000
LeftFoot -12.427504 4.524564 -11.476011
LeftToeBase 9.445600 -0.000000 -0.000000
Spine -10.425227 -5.061849 -2.247040
RightShoulder -18.565806 -10.202074 -26.686267
RightArm 17.988211 33.518981 44.088978
RightForeArm -6.714550 -0.000000 11.312628
RightHand 6.039031 -0.000000 6.236267
RightHandThumb1 -24.326973 -0.000000 -32.862282
LeftShoulder -21.989117 1.376094 29.760384
LeftArm 14.568241 -38.999288 -39.172516
LeftForeArm 3.757670 0.000000 11.376263
LeftHand -2.851735 -0.000000 5.489247
LeftHandThumb1 -26.253704 0.000000 33.147579
Head 1.225397 2.024624 1.438677
4
root -4.867050 33.072558 -1.138967 7.451881 -0.260259 3.262566
RightUpLeg 0.955055 -4.036969 1.176618
RightLeg -0.113334 -0.000000 0.000000
RightFoot -12.546608 -7.373923 -2.442268
RightToeBase 2.909039 -0.000000 -0.000000
LeftUpLeg -0.629355 -0.614624 -2.666262
LeftLeg 1.844217 -0.000000 -0.000000
LeftFoot -12.432362 4.533030 -11.468845
LeftToeBase 9.430265 -0.000000 -0.000000
Spine -10.431749 -5.050158 -2.237664
RightShoulder -18.573144 -10.202782 -26.695764
RightArm 17.986136 33.527995 44.103158
RightForeArm -6.739138 0.000000 11.323356
RightHand 6.028889 -0.000000 6.226956
RightHandThumb1 -24.326973 -0.000000 -32.862282
LeftShoulder -21.986634 1.371144 29.764870
LeftArm 14.564097 -39.010989 -39.174727
LeftForeArm 3.779165 0.000000 11.365663
LeftHand -2.849255 -0.000000 5.401794
LeftHandThumb1 -26.253704 0.000000 33.147579
Head 1.237047 2.028128 1.431746
5
root -4.866901 33.072703 -1.139166 7.448565 -0.249871 3.264478
RightUpLeg 0.962077 -4.064249 1.175695
RightLeg -0.120469 -0.000000 0.000000
RightFoot -12.539014 -7.362546 -2.452925
RightToeBase 2.879529 -0.000000 -0.000000
LeftUpLeg -0.632299 -0.612924 -2.667410
LeftLeg 1.854023 -0.000000 -0.000000
LeftFoot -12.431909 4.521721 -11.470931
LeftToeBase 9.434971 -0.000000 -0.000000
Spine -10.435553 -5.057973 -2.232542
RightShoulder -18.572929 -10.223490 -26.691294
RightArm 17.995691 33.532079 44.107901
RightForeArm -6.712210 -0.000000 11.334502
RightHand 6.016077 -0.000000 6.257186
RightHandThumb1 -24.326973 -0.000000 -32.862282
LeftShoulder -21.990522 1.375823 29.765319
LeftArm 14.565730 -39.019394 -39.170881
LeftForeArm 3.795158 0.000000 11.352218
LeftHand -2.860301 -0.000000 5.329874
LeftHandThumb1 -26.253704 0.000000 33.147579
Head 1.247135 2.040216 1.429936
